<?xml version="1.0" encoding="utf-8"?>
<svg xmlns="http://www.w3.org/2000/svg" version="1.1" width="1520" height="840">

<circle cx="100" cy="100" r="5" fill="black" />
<text x="95" y="105" font-family="sans - serif" font-size="20px" fill="red" >0</text>
<circle cx="200" cy="100" r="5" fill="black" />
<text x="195" y="105" font-family="sans - serif" font-size="20px" fill="red" >1</text>
<circle cx="300" cy="100" r="5" fill="black" />
<text x="295" y="105" font-family="sans - serif" font-size="20px" fill="red" >2</text>
<circle cx="400" cy="100" r="5" fill="black" />
<text x="395" y="105" font-family="sans - serif" font-size="20px" fill="red" >3</text>
<circle cx="100" cy="200" r="5" fill="black" />
<text x="95" y="205" font-family="sans - serif" font-size="20px" fill="red" >4</text>
<circle cx="200" cy="200" r="5" fill="black" />
<text x="195" y="205" font-family="sans - serif" font-size="20px" fill="red" >5</text>
<circle cx="300" cy="200" r="5" fill="black" />
<text x="295" y="205" font-family="sans - serif" font-size="20px" fill="red" >6</text>
<circle cx="400" cy="200" r="5" fill="black" />
<text x="395" y="205" font-family="sans - serif" font-size="20px" fill="red" >7</text>
<circle cx="100" cy="300" r="5" fill="black" />
<text x="95" y="305" font-family="sans - serif" font-size="20px" fill="red" >8</text>
<circle cx="200" cy="300" r="5" fill="black" />
<text x="195" y="305" font-family="sans - serif" font-size="20px" fill="red" >9</text>
<circle cx="300" cy="300" r="5" fill="black" />
<text x="295" y="305" font-family="sans - serif" font-size="20px" fill="red" >10</text>
<circle cx="400" cy="300" r="5" fill="black" />
<text x="395" y="305" font-family="sans - serif" font-size="20px" fill="red" >11</text>
<circle cx="100" cy="400" r="5" fill="black" />
<text x="95" y="405" font-family="sans - serif" font-size="20px" fill="red" >12</text>
<circle cx="200" cy="400" r="5" fill="black" />
<text x="195" y="405" font-family="sans - serif" font-size="20px" fill="red" >13</text>
<circle cx="300" cy="400" r="5" fill="black" />
<text x="295" y="405" font-family="sans - serif" font-size="20px" fill="red" >14</text>
<circle cx="400" cy="400" r="5" fill="black" />
<text x="395" y="405" font-family="sans - serif" font-size="20px" fill="red" >15</text>
<line x1="100" y1="100" x2="200" y2="100" stroke="black" />
<text x="150" y="90" font-family="sans - serif" font-size="20px" fill="black" >6;5</text>
<line x1="200" y1="100" x2="300" y2="100" stroke="black" />
<text x="250" y="90" font-family="sans - serif" font-size="20px" fill="black" >9;8</text>
<line x1="300" y1="100" x2="400" y2="100" stroke="black" />
<text x="350" y="90" font-family="sans - serif" font-size="20px" fill="black" >8;7</text>
<line x1="100" y1="200" x2="200" y2="200" stroke="black" />
<text x="150" y="190" font-family="sans - serif" font-size="20px" fill="black" >5;6</text>
<line x1="200" y1="200" x2="300" y2="200" stroke="black" />
<text x="250" y="190" font-family="sans - serif" font-size="20px" fill="black" >9;9</text>
<line x1="300" y1="200" x2="400" y2="200" stroke="black" />
<text x="350" y="190" font-family="sans - serif" font-size="20px" fill="black" >2;6</text>
<line x1="100" y1="300" x2="200" y2="300" stroke="black" />
<text x="150" y="290" font-family="sans - serif" font-size="20px" fill="black" >4;3</text>
<line x1="200" y1="300" x2="300" y2="300" stroke="black" />
<text x="250" y="290" font-family="sans - serif" font-size="20px" fill="black" >1;1</text>
<line x1="300" y1="300" x2="400" y2="300" stroke="black" />
<text x="350" y="290" font-family="sans - serif" font-size="20px" fill="black" >8;3</text>
<line x1="100" y1="400" x2="200" y2="400" stroke="black" />
<text x="150" y="390" font-family="sans - serif" font-size="20px" fill="black" >3;1</text>
<line x1="200" y1="400" x2="300" y2="400" stroke="black" />
<text x="250" y="390" font-family="sans - serif" font-size="20px" fill="black" >9;7</text>
<line x1="300" y1="400" x2="400" y2="400" stroke="black" />
<text x="350" y="390" font-family="sans - serif" font-size="20px" fill="black" >3;5</text>
<line x1="100" y1="100" x2="100" y2="200" stroke="black" />
<text x="75" y="150" font-family="sans - serif" font-size="20px" fill="black" >8;9</text>
<line x1="200" y1="100" x2="200" y2="200" stroke="black" />
<text x="175" y="150" font-family="sans - serif" font-size="20px" fill="black" >7;2</text>
<line x1="300" y1="100" x2="300" y2="200" stroke="black" />
<text x="275" y="150" font-family="sans - serif" font-size="20px" fill="black" >8;8</text>
<line x1="400" y1="100" x2="400" y2="200" stroke="black" />
<text x="375" y="150" font-family="sans - serif" font-size="20px" fill="black" >6;4</text>
<line x1="100" y1="200" x2="100" y2="300" stroke="black" />
<text x="75" y="250" font-family="sans - serif" font-size="20px" fill="black" >8;3</text>
<line x1="200" y1="200" x2="200" y2="300" stroke="black" />
<text x="175" y="250" font-family="sans - serif" font-size="20px" fill="black" >9;7</text>
<line x1="300" y1="200" x2="300" y2="300" stroke="black" />
<text x="275" y="250" font-family="sans - serif" font-size="20px" fill="black" >4;3</text>
<line x1="400" y1="200" x2="400" y2="300" stroke="black" />
<text x="375" y="250" font-family="sans - serif" font-size="20px" fill="black" >1;4</text>
<line x1="100" y1="300" x2="100" y2="400" stroke="black" />
<text x="75" y="350" font-family="sans - serif" font-size="20px" fill="black" >1;7</text>
<line x1="200" y1="300" x2="200" y2="400" stroke="black" />
<text x="175" y="350" font-family="sans - serif" font-size="20px" fill="black" >7;3</text>
<line x1="300" y1="300" x2="300" y2="400" stroke="black" />
<text x="275" y="350" font-family="sans - serif" font-size="20px" fill="black" >6;4</text>
<line x1="400" y1="300" x2="400" y2="400" stroke="black" />
<text x="375" y="350" font-family="sans - serif" font-size="20px" fill="black" >1;8</text>


</svg>
