<?xml version="1.0" encoding="utf-8"?>
<svg xmlns="http://www.w3.org/2000/svg" version="1.1" width="1520" height="840">

<circle cx="250" cy="100" r="5" fill="black" />
<text x="245" y="105" font-family="sans - serif" font-size="20px" fill="red" >0</text>
<circle cx="200" cy="185" r="5" fill="black" />
<text x="195" y="190" font-family="sans - serif" font-size="20px" fill="red" >1</text>
<circle cx="300" cy="185" r="5" fill="black" />
<text x="295" y="190" font-family="sans - serif" font-size="20px" fill="red" >2</text>
<circle cx="150" cy="270" r="5" fill="black" />
<text x="145" y="275" font-family="sans - serif" font-size="20px" fill="red" >3</text>
<circle cx="250" cy="270" r="5" fill="black" />
<text x="245" y="275" font-family="sans - serif" font-size="20px" fill="red" >4</text>
<circle cx="350" cy="270" r="5" fill="black" />
<text x="345" y="275" font-family="sans - serif" font-size="20px" fill="red" >5</text>
<circle cx="100" cy="355" r="5" fill="black" />
<text x="95" y="360" font-family="sans - serif" font-size="20px" fill="red" >6</text>
<circle cx="200" cy="355" r="5" fill="black" />
<text x="195" y="360" font-family="sans - serif" font-size="20px" fill="red" >7</text>
<circle cx="300" cy="355" r="5" fill="black" />
<text x="295" y="360" font-family="sans - serif" font-size="20px" fill="red" >8</text>
<circle cx="400" cy="355" r="5" fill="black" />
<text x="395" y="360" font-family="sans - serif" font-size="20px" fill="red" >9</text>
<line x1="250" y1="100" x2="200" y2="185" stroke="black" />
<text x="213" y="132" font-family="sans - serif" font-size="20px" fill="black" >6;4</text>
<line x1="250" y1="100" x2="300" y2="185" stroke="black" />
<text x="280" y="132" font-family="sans - serif" font-size="20px" fill="black" >9;1</text>
<line x1="200" y1="185" x2="300" y2="185" stroke="black" />
<text x="250" y="175" font-family="sans - serif" font-size="20px" fill="black" >8;1</text>
<line x1="200" y1="185" x2="150" y2="270" stroke="black" />
<text x="163" y="217" font-family="sans - serif" font-size="20px" fill="black" >5;7</text>
<line x1="200" y1="185" x2="250" y2="270" stroke="black" />
<text x="230" y="217" font-family="sans - serif" font-size="20px" fill="black" >9;6</text>
<line x1="300" y1="185" x2="250" y2="270" stroke="black" />
<text x="263" y="217" font-family="sans - serif" font-size="20px" fill="black" >2;1</text>
<line x1="300" y1="185" x2="350" y2="270" stroke="black" />
<text x="330" y="217" font-family="sans - serif" font-size="20px" fill="black" >4;5</text>
<line x1="150" y1="270" x2="250" y2="270" stroke="black" />
<text x="200" y="260" font-family="sans - serif" font-size="20px" fill="black" >1;8</text>
<line x1="250" y1="270" x2="350" y2="270" stroke="black" />
<text x="300" y="260" font-family="sans - serif" font-size="20px" fill="black" >8;7</text>
<line x1="150" y1="270" x2="100" y2="355" stroke="black" />
<text x="113" y="302" font-family="sans - serif" font-size="20px" fill="black" >3;6</text>
<line x1="150" y1="270" x2="200" y2="355" stroke="black" />
<text x="180" y="302" font-family="sans - serif" font-size="20px" fill="black" >9;9</text>
<line x1="250" y1="270" x2="200" y2="355" stroke="black" />
<text x="213" y="302" font-family="sans - serif" font-size="20px" fill="black" >3;6</text>
<line x1="250" y1="270" x2="300" y2="355" stroke="black" />
<text x="280" y="302" font-family="sans - serif" font-size="20px" fill="black" >8;3</text>
<line x1="350" y1="270" x2="300" y2="355" stroke="black" />
<text x="313" y="302" font-family="sans - serif" font-size="20px" fill="black" >7;1</text>
<line x1="350" y1="270" x2="400" y2="355" stroke="black" />
<text x="380" y="302" font-family="sans - serif" font-size="20px" fill="black" >8;3</text>
<line x1="100" y1="355" x2="200" y2="355" stroke="black" />
<text x="150" y="345" font-family="sans - serif" font-size="20px" fill="black" >6;1</text>
<line x1="200" y1="355" x2="300" y2="355" stroke="black" />
<text x="250" y="345" font-family="sans - serif" font-size="20px" fill="black" >8;7</text>
<line x1="300" y1="355" x2="400" y2="355" stroke="black" />
<text x="350" y="345" font-family="sans - serif" font-size="20px" fill="black" >9;5</text>


</svg>
