<?xml version="1.0" encoding="utf-8"?>
<svg xmlns="http://www.w3.org/2000/svg" version="1.1" width="1000" height="800">

<rect x="50" y="50" width="50%" height="50%" style="fill:green"/>
<circle cx="100" cy="100" r="6" fill="black" />
<circle cx="200" cy="100" r="6" fill="black" />
<circle cx="100" cy="200" r="6" fill="black" />
<circle cx="200" cy="200" r="6" fill="black" />
<line x1="100" y1="100" x2="200" y2="100" stroke="black" />
<text x="150" y="90" fill="black" >8;5</text>
<line x1="200" y1="100" x2="100" y2="200" stroke="black" />
<text x="140" y="140" fill="black" >3;6</text>
<line x1="100" y1="200" x2="200" y2="200" stroke="black" />
<text x="150" y="190" fill="black" >6;9</text>
<circle cx="300" cy="100" r="6" fill="black" />
<circle cx="400" cy="100" r="6" fill="black" />
<circle cx="300" cy="200" r="6" fill="black" />
<circle cx="400" cy="200" r="6" fill="black" />
<line x1="300" y1="100" x2="400" y2="100" stroke="black" />
<text x="350" y="80" fill="black" >8;5</text>
<line x1="400" y1="100" x2="300" y2="200" stroke="black" />
<text x="330" y="130" fill="black" >3;6</text>
<line x1="400" y1="100" x2="400" y2="200" stroke="black" />
<text x="375" y="150" fill="black" >8;4</text>


</svg>
