<?xml version="1.0" encoding="utf-8"?>
<svg xmlns="http://www.w3.org/2000/svg" version="1.1" width="1000" height="800">

<circle cx="100" cy="100" r="6" fill="black" />
<circle cx="200" cy="100" r="6" fill="black" />
<circle cx="300" cy="100" r="6" fill="black" />
<circle cx="400" cy="100" r="6" fill="black" />
<circle cx="100" cy="200" r="6" fill="black" />
<circle cx="200" cy="200" r="6" fill="black" />
<circle cx="300" cy="200" r="6" fill="black" />
<circle cx="400" cy="200" r="6" fill="black" />
<circle cx="100" cy="300" r="6" fill="black" />
<circle cx="200" cy="300" r="6" fill="black" />
<circle cx="300" cy="300" r="6" fill="black" />
<circle cx="400" cy="300" r="6" fill="black" />
<circle cx="100" cy="400" r="6" fill="black" />
<circle cx="200" cy="400" r="6" fill="black" />
<circle cx="300" cy="400" r="6" fill="black" />
<circle cx="400" cy="400" r="6" fill="black" />
<line x1="100" y1="100" x2="200" y2="100" stroke="black" />
<text x="150" y="90" fill="black" >6;5</text>
<line x1="200" y1="100" x2="300" y2="100" stroke="black" />
<text x="250" y="90" fill="black" >9;8</text>
<line x1="300" y1="100" x2="400" y2="100" stroke="black" />
<text x="350" y="90" fill="black" >8;7</text>
<line x1="100" y1="200" x2="200" y2="200" stroke="black" />
<text x="150" y="190" fill="black" >5;6</text>
<line x1="200" y1="200" x2="300" y2="200" stroke="black" />
<text x="250" y="190" fill="black" >9;9</text>
<line x1="300" y1="200" x2="400" y2="200" stroke="black" />
<text x="350" y="190" fill="black" >2;6</text>
<line x1="100" y1="300" x2="200" y2="300" stroke="black" />
<text x="150" y="290" fill="black" >4;3</text>
<line x1="200" y1="300" x2="300" y2="300" stroke="black" />
<text x="250" y="290" fill="black" >1;1</text>
<line x1="300" y1="300" x2="400" y2="300" stroke="black" />
<text x="350" y="290" fill="black" >8;3</text>
<line x1="100" y1="400" x2="200" y2="400" stroke="black" />
<text x="150" y="390" fill="black" >3;1</text>
<line x1="200" y1="400" x2="300" y2="400" stroke="black" />
<text x="250" y="390" fill="black" >9;7</text>
<line x1="300" y1="400" x2="400" y2="400" stroke="black" />
<text x="350" y="390" fill="black" >3;5</text>
<line x1="100" y1="100" x2="100" y2="200" stroke="black" />
<text x="75" y="150" fill="black" >8;9</text>
<line x1="200" y1="100" x2="200" y2="200" stroke="black" />
<text x="175" y="150" fill="black" >7;2</text>
<line x1="300" y1="100" x2="300" y2="200" stroke="black" />
<text x="275" y="150" fill="black" >8;8</text>
<line x1="400" y1="100" x2="400" y2="200" stroke="black" />
<text x="375" y="150" fill="black" >6;4</text>
<line x1="100" y1="200" x2="100" y2="300" stroke="black" />
<text x="75" y="250" fill="black" >8;3</text>
<line x1="200" y1="200" x2="200" y2="300" stroke="black" />
<text x="175" y="250" fill="black" >9;7</text>
<line x1="300" y1="200" x2="300" y2="300" stroke="black" />
<text x="275" y="250" fill="black" >4;3</text>
<line x1="400" y1="200" x2="400" y2="300" stroke="black" />
<text x="375" y="250" fill="black" >1;4</text>
<line x1="100" y1="300" x2="100" y2="400" stroke="black" />
<text x="75" y="350" fill="black" >1;7</text>
<line x1="200" y1="300" x2="200" y2="400" stroke="black" />
<text x="175" y="350" fill="black" >7;3</text>
<line x1="300" y1="300" x2="300" y2="400" stroke="black" />
<text x="275" y="350" fill="black" >6;4</text>
<line x1="400" y1="300" x2="400" y2="400" stroke="black" />
<text x="375" y="350" fill="black" >1;8</text>


</svg>
