<?xml version="1.0" encoding="utf-8"?>
<svg xmlns="http://www.w3.org/2000/svg" version="1.1" width="1000" height="800">

<circle cx="225" cy="85" r="6" fill="black" />
<circle cx="175" cy="170" r="6" fill="black" />
<circle cx="275" cy="170" r="6" fill="black" />
<circle cx="125" cy="255" r="6" fill="black" />
<circle cx="225" cy="255" r="6" fill="black" />
<circle cx="325" cy="255" r="6" fill="black" />
<circle cx="75" cy="340" r="6" fill="black" />
<circle cx="175" cy="340" r="6" fill="black" />
<circle cx="275" cy="340" r="6" fill="black" />
<circle cx="375" cy="340" r="6" fill="black" />
<line x1="225" y1="85" x2="175" y2="170" stroke="black" />
<text x="190" y="117" fill="black" >6;4</text>
<line x1="225" y1="85" x2="275" y2="170" stroke="black" />
<text x="255" y="117" fill="black" >9;1</text>
<line x1="175" y1="170" x2="275" y2="170" stroke="black" />
<text x="225" y="160" fill="black" >8;1</text>
<line x1="175" y1="170" x2="125" y2="255" stroke="black" />
<text x="140" y="202" fill="black" >5;7</text>
<line x1="175" y1="170" x2="225" y2="255" stroke="black" />
<text x="205" y="202" fill="black" >9;6</text>
<line x1="275" y1="170" x2="225" y2="255" stroke="black" />
<text x="240" y="202" fill="black" >2;1</text>
<line x1="275" y1="170" x2="325" y2="255" stroke="black" />
<text x="305" y="202" fill="black" >4;5</text>
<line x1="125" y1="255" x2="225" y2="255" stroke="black" />
<text x="175" y="245" fill="black" >1;8</text>
<line x1="225" y1="255" x2="325" y2="255" stroke="black" />
<text x="275" y="245" fill="black" >8;7</text>
<line x1="125" y1="255" x2="75" y2="340" stroke="black" />
<text x="90" y="287" fill="black" >3;6</text>
<line x1="125" y1="255" x2="175" y2="340" stroke="black" />
<text x="155" y="287" fill="black" >9;9</text>
<line x1="225" y1="255" x2="175" y2="340" stroke="black" />
<text x="190" y="287" fill="black" >3;6</text>
<line x1="225" y1="255" x2="275" y2="340" stroke="black" />
<text x="255" y="287" fill="black" >8;3</text>
<line x1="325" y1="255" x2="275" y2="340" stroke="black" />
<text x="290" y="287" fill="black" >7;1</text>
<line x1="325" y1="255" x2="375" y2="340" stroke="black" />
<text x="355" y="287" fill="black" >8;3</text>
<line x1="75" y1="340" x2="175" y2="340" stroke="black" />
<text x="125" y="330" fill="black" >6;1</text>
<line x1="175" y1="340" x2="275" y2="340" stroke="black" />
<text x="225" y="330" fill="black" >8;7</text>
<line x1="275" y1="340" x2="375" y2="340" stroke="black" />
<text x="325" y="330" fill="black" >9;5</text>


</svg>
