<?xml version="1.0" encoding="utf-8"?>
<svg xmlns="http://www.w3.org/2000/svg" version="1.1" width="1520" height="840">


<defs>
  <radialGradient id="grad_button" cx="50%" cy="50%" r="50%" fx="50%" fy="50%">
    <stop offset="0.41%" style="stop-color:rgb(255,255,255);stop-opacity:0.3" />
    <stop offset="20%" style="stop-color:#FFFFFF;stop-opacity:0.2" />
    <stop offset="57,93%" style="stop-color:#B5E3EE;stop-opacity:100%" />
    <stop offset="90%" style="stop-color:#107A9E;stop-opacity:1" />
  </radialGradient>
  </defs>
  <defs>
    <linearGradient id="lin_button" x1="0%" y1="0%" x2="200%" y2="0%">
      <stop offset="20.54%" style="stop-color:#FFFFFF;stop-opacity:0.3" />
      <stop offset="44.59%" style="stop-color:#FFFFFF;stop-opacity:1" />
    </linearGradient>
</defs>

  //*BACKGROUND*//
  <rect width="1540" height="850" style="fill:#090F24;"/>


  <line x1="110" y1="0" x2="110" y2="840" style="stroke:#107C88;stroke-width:1" />
  <line x1="210" y1="0" x2="210" y2="840" style="stroke:#107C88;stroke-width:1" />
  <line x1="310" y1="0" x2="310" y2="840" style="stroke:#107C88;stroke-width:1" />
  <line x1="410" y1="0" x2="410" y2="840" style="stroke:#107C88;stroke-width:1" />
  <line x1="510" y1="0" x2="510" y2="840" style="stroke:#107C88;stroke-width:1" />
  <line x1="610" y1="0" x2="610" y2="840" style="stroke:#107C88;stroke-width:1" />
  <line x1="710" y1="0" x2="710" y2="840" style="stroke:#107C88;stroke-width:1" />
  <line x1="810" y1="0" x2="810" y2="840" style="stroke:#107C88;stroke-width:1" />
  <line x1="910" y1="0" x2="910" y2="840" style="stroke:#107C88;stroke-width:1" />
  <line x1="1010" y1="0" x2="1010" y2="840" style="stroke:#107C88;stroke-width:1" />
  <line x1="1110" y1="0" x2="1110" y2="840" style="stroke:#107C88;stroke-width:1" />
  <line x1="1210" y1="0" x2="1210" y2="840" style="stroke:#107C88;stroke-width:1" />
  <line x1="1310" y1="0" x2="1310" y2="840" style="stroke:#107C88;stroke-width:1" />
  <line x1="1410" y1="0" x2="1410" y2="840" style="stroke:#107C88;stroke-width:1" />
  
  <line x1="0" y1="82.5" x2="1520" y2="82.5" style="stroke:#107C88;stroke-width:1" />
  <line x1="0" y1="157.5" x2="1520" y2="157.5" style="stroke:#107C88;stroke-width:1" />
  <line x1="0" y1="232.5" x2="1520" y2="232.5" style="stroke:#107C88;stroke-width:1" />
  <line x1="0" y1="307.5" x2="1520" y2="307.5" style="stroke:#107C88;stroke-width:1" />
  <line x1="0" y1="382.5" x2="1520" y2="382.5" style="stroke:#107C88;stroke-width:1" />
  <line x1="0" y1="457.5" x2="1520" y2="457.5" style="stroke:#107C88;stroke-width:1" />
  <line x1="0" y1="532.5" x2="1520" y2="532.5" style="stroke:#107C88;stroke-width:1" />
  <line x1="0" y1="607.5" x2="1520" y2="607.5" style="stroke:#107C88;stroke-width:1" />
  <line x1="0" y1="682.5" x2="1520" y2="682.5" style="stroke:#107C88;stroke-width:1" />
  <line x1="0" y1="757.5" x2="1520" y2="757.5" style="stroke:#107C88;stroke-width:1" />
  
  //*Model Place *//
  <path d="M110 82.5 h400 v300 l-75 100 h-325 Z"  fill="#090F24"  /> 
  <path d="M110 82.5 h400 v300 l-75 100 h-325 Z"  fill="#107C88" opacity="0.5" /> 

  //*Graph Place *//
  <rect x="810" y="82.5" width="600" height="450" style="fill:#090F24;" />
  <path d="M810 82.5 h200 h-200 v150 M810 532.5 h200 h-200 v-150 M1410 82.5 h-200 h200 v150 M1410 532.5 h-200 h200 v-150 "  stroke="#107C88"  stroke-width="5" /> 
  <circle cx="840" cy="500" r="3" fill="blue"/>
  <line x1="840" y1="500" x2="840" y2="112.5" style="stroke:red;stroke-width:3"/>
  <line x1="840" y1="500" x2="1380" y2="500" style="stroke:red;stroke-width:3"/>

  //*Result models place *//
  <rect x="210" y="607.5" width="1100" height="175" style="fill:#090F24;" />
  <rect x="210" y="607.5" width="1100" height="175" style="fill:#107C88; opacity:0.5" />

  //*1 Button*//
  <circle cx="210" cy="532.5" r="40" fill="#090F24" />
  <circle cx="210" cy="532.5" r="40" fill="url(#grad_button)" opacity="0.4" />
  <circle cx="210" cy="532.5" r="40" fill="url(#lin_button)" opacity="0.4" />
  <circle cx="210" cy="532.5" r="5" fill="#504964" />

  <circle cx="310" cy="532.5" r="40" fill="#090F24" />
  <circle cx="310" cy="532.5" r="40" fill="url(#grad_button)" opacity="0.4" />
  <circle cx="310" cy="532.5" r="40" fill="url(#lin_button)" opacity="0.4" />
  <circle cx="310" cy="532.5" r="5" fill="#504964" />

  <circle cx="410" cy="532.5" r="40" fill="#090F24" />
  <circle cx="410" cy="532.5" r="40" fill="url(#grad_button)" opacity="0.4" />
  <circle cx="410" cy="532.5" r="40" fill="url(#lin_button)" opacity="0.4" />
  <circle cx="410" cy="532.5" r="5" fill="#504964" />
<text x="112" y="75" font-family="Myriad-Pro" font-size="80px" fill="white" >manhattan</text>
<circle cx="140" cy="110" r="10" fill="white" />
<text x="135" y="115" font-family="sans - serif" font-size="20px" fill="red" >0</text>
<circle cx="240" cy="110" r="10" fill="white" />
<text x="235" y="115" font-family="sans - serif" font-size="20px" fill="red" >1</text>
<circle cx="340" cy="110" r="10" fill="white" />
<text x="335" y="115" font-family="sans - serif" font-size="20px" fill="red" >2</text>
<circle cx="440" cy="110" r="10" fill="white" />
<text x="435" y="115" font-family="sans - serif" font-size="20px" fill="red" >3</text>
<circle cx="140" cy="210" r="10" fill="white" />
<text x="135" y="215" font-family="sans - serif" font-size="20px" fill="red" >4</text>
<circle cx="240" cy="210" r="10" fill="white" />
<text x="235" y="215" font-family="sans - serif" font-size="20px" fill="red" >5</text>
<circle cx="340" cy="210" r="10" fill="white" />
<text x="335" y="215" font-family="sans - serif" font-size="20px" fill="red" >6</text>
<circle cx="440" cy="210" r="10" fill="white" />
<text x="435" y="215" font-family="sans - serif" font-size="20px" fill="red" >7</text>
<circle cx="140" cy="310" r="10" fill="white" />
<text x="135" y="315" font-family="sans - serif" font-size="20px" fill="red" >8</text>
<circle cx="240" cy="310" r="10" fill="white" />
<text x="235" y="315" font-family="sans - serif" font-size="20px" fill="red" >9</text>
<circle cx="340" cy="310" r="10" fill="white" />
<text x="335" y="315" font-family="sans - serif" font-size="20px" fill="red" >10</text>
<circle cx="440" cy="310" r="10" fill="white" />
<text x="435" y="315" font-family="sans - serif" font-size="20px" fill="red" >11</text>
<circle cx="140" cy="410" r="10" fill="white" />
<text x="135" y="415" font-family="sans - serif" font-size="20px" fill="red" >12</text>
<circle cx="240" cy="410" r="10" fill="white" />
<text x="235" y="415" font-family="sans - serif" font-size="20px" fill="red" >13</text>
<circle cx="340" cy="410" r="10" fill="white" />
<text x="335" y="415" font-family="sans - serif" font-size="20px" fill="red" >14</text>
<circle cx="440" cy="410" r="10" fill="white" />
<text x="435" y="415" font-family="sans - serif" font-size="20px" fill="red" >15</text>
<line x1="140" y1="110" x2="240" y2="110" stroke="white" />
<text x="190" y="100" font-family="sans - serif" font-size="20px" fill="white" >6;5</text>
<line x1="240" y1="110" x2="340" y2="110" stroke="white" />
<text x="290" y="100" font-family="sans - serif" font-size="20px" fill="white" >9;8</text>
<line x1="340" y1="110" x2="440" y2="110" stroke="white" />
<text x="390" y="100" font-family="sans - serif" font-size="20px" fill="white" >8;7</text>
<line x1="140" y1="210" x2="240" y2="210" stroke="white" />
<text x="190" y="200" font-family="sans - serif" font-size="20px" fill="white" >5;6</text>
<line x1="240" y1="210" x2="340" y2="210" stroke="white" />
<text x="290" y="200" font-family="sans - serif" font-size="20px" fill="white" >9;9</text>
<line x1="340" y1="210" x2="440" y2="210" stroke="white" />
<text x="390" y="200" font-family="sans - serif" font-size="20px" fill="white" >2;6</text>
<line x1="140" y1="310" x2="240" y2="310" stroke="white" />
<text x="190" y="300" font-family="sans - serif" font-size="20px" fill="white" >4;3</text>
<line x1="240" y1="310" x2="340" y2="310" stroke="white" />
<text x="290" y="300" font-family="sans - serif" font-size="20px" fill="white" >1;1</text>
<line x1="340" y1="310" x2="440" y2="310" stroke="white" />
<text x="390" y="300" font-family="sans - serif" font-size="20px" fill="white" >8;3</text>
<line x1="140" y1="410" x2="240" y2="410" stroke="white" />
<text x="190" y="400" font-family="sans - serif" font-size="20px" fill="white" >3;1</text>
<line x1="240" y1="410" x2="340" y2="410" stroke="white" />
<text x="290" y="400" font-family="sans - serif" font-size="20px" fill="white" >9;7</text>
<line x1="340" y1="410" x2="440" y2="410" stroke="white" />
<text x="390" y="400" font-family="sans - serif" font-size="20px" fill="white" >3;5</text>
<line x1="140" y1="110" x2="140" y2="210" stroke="white" />
<text x="115" y="160" font-family="sans - serif" font-size="20px" fill="white" >8;9</text>
<line x1="240" y1="110" x2="240" y2="210" stroke="white" />
<text x="215" y="160" font-family="sans - serif" font-size="20px" fill="white" >7;2</text>
<line x1="340" y1="110" x2="340" y2="210" stroke="white" />
<text x="315" y="160" font-family="sans - serif" font-size="20px" fill="white" >8;8</text>
<line x1="440" y1="110" x2="440" y2="210" stroke="white" />
<text x="415" y="160" font-family="sans - serif" font-size="20px" fill="white" >6;4</text>
<line x1="140" y1="210" x2="140" y2="310" stroke="white" />
<text x="115" y="260" font-family="sans - serif" font-size="20px" fill="white" >8;3</text>
<line x1="240" y1="210" x2="240" y2="310" stroke="white" />
<text x="215" y="260" font-family="sans - serif" font-size="20px" fill="white" >9;7</text>
<line x1="340" y1="210" x2="340" y2="310" stroke="white" />
<text x="315" y="260" font-family="sans - serif" font-size="20px" fill="white" >4;3</text>
<line x1="440" y1="210" x2="440" y2="310" stroke="white" />
<text x="415" y="260" font-family="sans - serif" font-size="20px" fill="white" >1;4</text>
<line x1="140" y1="310" x2="140" y2="410" stroke="white" />
<text x="115" y="360" font-family="sans - serif" font-size="20px" fill="white" >1;7</text>
<line x1="240" y1="310" x2="240" y2="410" stroke="white" />
<text x="215" y="360" font-family="sans - serif" font-size="20px" fill="white" >7;3</text>
<line x1="340" y1="310" x2="340" y2="410" stroke="white" />
<text x="315" y="360" font-family="sans - serif" font-size="20px" fill="white" >6;4</text>
<line x1="440" y1="310" x2="440" y2="410" stroke="white" />
<text x="415" y="360" font-family="sans - serif" font-size="20px" fill="white" >1;8</text>


</svg>
